<svg width="20" height="20" viewBox="0 0 20 20" fill="none" xmlns="http://www.w3.org/2000/svg">
<path d="M16.6667 12.1425C16.6667 15.6275 13.6133 18.3333 10 18.3333C6.38668 18.3333 3.33334 15.6275 3.33334 12.1425C3.33334 10 4.42084 7.87666 5.59668 6.18583C6.78834 4.47333 8.16001 3.08083 8.89834 2.37916M16.6667 12.1425L8.89834 2.37916M16.6667 12.1425C16.6667 10 15.5792 7.87666 14.4033 6.18583C13.2117 4.47333 11.84 3.08083 11.1017 2.37916C10.805 2.09554 10.4104 1.93726 10 1.93726C9.58959 1.93726 9.19499 2.09554 8.89834 2.37916" stroke="#B4B4B4" stroke-width="2"/>
<path d="M10 15.0001C9.11597 15.0001 8.26812 14.6489 7.643 14.0238C7.01788 13.3986 6.66669 12.5508 6.66669 11.6667" stroke="#B4B4B4" stroke-width="2" stroke-linecap="round"/>
</svg>
