<svg width="20" height="20" viewBox="0 0 20 20" fill="none" xmlns="http://www.w3.org/2000/svg">
<path d="M13.2422 3.86728C13.2422 3.2579 13.0704 2.66086 12.7466 2.14462C12.4228 1.62839 11.96 1.21387 11.4114 0.948585C10.8628 0.683303 10.2505 0.578002 9.64483 0.644759C9.03911 0.711515 8.46447 0.947626 7.9868 1.32602C7.50913 1.70441 7.14777 2.20976 6.94415 2.78412C6.74054 3.35848 6.70292 3.97859 6.8356 4.57336C6.96828 5.16812 7.26589 5.71345 7.69431 6.14681C8.12273 6.58018 8.66461 6.88403 9.25781 7.02353V18.1251L10 19.3751L10.7422 18.1251V7.02353C11.4527 6.85444 12.0857 6.45118 12.5392 5.87865C12.9926 5.30612 13.2403 4.59765 13.2422 3.86728ZM10.9375 3.6329C10.7753 3.6329 10.6167 3.58479 10.4818 3.49466C10.3469 3.40452 10.2417 3.2764 10.1796 3.12651C10.1175 2.97662 10.1013 2.81168 10.1329 2.65256C10.1646 2.49343 10.2427 2.34727 10.3575 2.23254C10.4722 2.11782 10.6183 2.03969 10.7775 2.00804C10.9366 1.97639 11.1015 1.99263 11.2514 2.05472C11.4013 2.11681 11.5294 2.22195 11.6196 2.35685C11.7097 2.49175 11.7578 2.65035 11.7578 2.81259C11.7578 3.03015 11.6714 3.2388 11.5175 3.39264C11.3637 3.54648 11.1551 3.6329 10.9375 3.6329Z" fill="#B4B4B4"/>
</svg>
