<svg width="20" height="20" viewBox="0 0 20 20" fill="none" xmlns="http://www.w3.org/2000/svg">
<path d="M17.2442 14.4417C17.5421 13.3304 17.5804 12.1655 17.356 11.0371C17.1317 9.90871 16.6508 8.84703 15.9505 7.93423C15.2502 7.02142 14.3492 6.28197 13.3174 5.77308C12.2856 5.2642 11.1505 4.99951 10 4.99951C8.8495 4.99951 7.71443 5.2642 6.68259 5.77308C5.65076 6.28197 4.74984 7.02142 4.04952 7.93423C3.34921 8.84703 2.86828 9.90871 2.64395 11.0371C2.41962 12.1655 2.4579 13.3304 2.75583 14.4417" stroke="#B4B4B4" stroke-linecap="round"/>
<path d="M10.6383 12.985C11.0442 13.5767 10.7583 14.4784 10 14.9992C9.24166 15.5209 8.2975 15.4642 7.89166 14.8734C7.45833 14.2434 5.96333 10.7009 5.05583 8.50921C4.885 8.09671 5.38916 7.75004 5.71416 8.05754C7.43416 9.69088 10.2058 12.355 10.6383 12.985Z" stroke="#B4B4B4"/>
<path d="M10 5.00024V6.66691M4.69666 7.19691L5.875 8.37524M15.3033 7.19691L14.125 8.37524M17.2442 14.4419L15.635 14.0102M2.75583 14.4419L4.365 14.0102" stroke="#B4B4B4" stroke-linecap="round"/>
</svg>
