<svg width="25" height="25" viewBox="0 0 25 25" fill="none" xmlns="http://www.w3.org/2000/svg">
<path fill-rule="evenodd" clip-rule="evenodd" d="M24.2881 15.8028C24.7483 14.085 24.8116 12.3544 24.534 10.7084C24.1624 11.9004 23.4993 12.9301 22.644 13.7383L22.6431 13.7469C22.0031 14.3773 21.2486 14.8812 20.4191 15.2311C19.4871 15.6243 18.482 15.8139 17.4708 15.7873C16.4597 15.7608 15.4659 15.5186 14.5558 15.0771C13.6458 14.6356 12.8405 14.0048 12.1938 13.2271C11.5471 12.4493 11.074 11.5424 10.806 10.5671C10.538 9.59176 10.4813 8.57044 10.6397 7.57143C10.7981 6.57242 11.1681 5.61876 11.7247 4.7742C12.2439 3.98646 12.9144 3.31057 13.6965 2.7854C14.6938 2.08845 15.8663 1.64916 17.1026 1.53376C16.6826 1.36862 16.249 1.2254 15.8028 1.10583C9.40119 -0.609473 2.82114 3.18952 1.10584 9.59111C-0.60946 15.9927 3.18953 22.5727 9.59112 24.288C15.9927 26.0033 22.5728 22.2044 24.2881 15.8028ZM21.7431 16.9633C19.7225 21.2606 14.8567 23.6284 10.1088 22.3562C4.7741 20.9268 1.60827 15.4434 3.03769 10.1087C4.02484 6.42467 6.94539 3.77495 10.4152 2.95874C10.2509 3.16658 10.0953 3.38178 9.94892 3.60382C9.22567 4.70116 8.74505 5.94028 8.53919 7.2383C8.33333 8.53633 8.40698 9.86335 8.75522 11.1306C9.10345 12.3979 9.71824 13.5762 10.5585 14.5868C11.3987 15.5974 12.445 16.4169 13.6275 16.9906C14.8099 17.5643 16.1012 17.8789 17.415 17.9134C18.7288 17.9479 20.0348 17.7015 21.2457 17.1907C21.4139 17.1197 21.5798 17.0439 21.7431 16.9633ZM22.5574 5.31113L22.0329 3.69702L21.5085 5.31113L19.8113 5.31113L21.1843 6.3087L20.6599 7.9228L22.0329 6.92523L23.406 7.9228L22.8815 6.3087L24.2545 5.31112L22.5574 5.31113ZM16.0329 3.69702L16.5574 5.31113L18.2545 5.31113L16.8815 6.3087L17.406 7.9228L16.0329 6.92523L14.6599 7.9228L15.1843 6.3087L13.8113 5.31113L15.5085 5.31112L16.0329 3.69702ZM19.5574 9.31112L19.0329 7.69702L18.5085 9.31112L16.8113 9.31112L18.1843 10.3087L17.6599 11.9228L19.0329 10.9252L20.406 11.9228L19.8815 10.3087L21.2545 9.31112L19.5574 9.31112Z" fill="url(#paint0_linear_219_1295)"/>
<defs>
<linearGradient id="paint0_linear_219_1295" x1="15.8028" y1="1.10583" x2="9.59112" y2="24.288" gradientUnits="userSpaceOnUse">
<stop stop-color="#F5BD52"/>
<stop offset="1" stop-color="#F5DA79"/>
</linearGradient>
</defs>
</svg>
