<svg width="20" height="20" viewBox="0 0 20 20" fill="none" xmlns="http://www.w3.org/2000/svg">
<path d="M12.5 6.25H16.875V7.5H12.5V6.25ZM12.5 10H18.75V11.25H12.5V10ZM12.5 13.75H16.875V15H12.5V13.75ZM6.25 12.615V4.375H5V12.615C4.58299 12.7624 4.23153 13.0525 4.00773 13.434C3.78393 13.8156 3.70221 14.2639 3.777 14.6998C3.8518 15.1358 4.07829 15.5312 4.41646 15.8163C4.75463 16.1014 5.1827 16.2578 5.625 16.2578C6.0673 16.2578 6.49537 16.1014 6.83354 15.8163C7.17171 15.5312 7.3982 15.1358 7.473 14.6998C7.54779 14.2639 7.46607 13.8156 7.24227 13.434C7.01847 13.0525 6.66701 12.7624 6.25 12.615Z" fill="#B4B4B4"/>
<path d="M18.75 2.5001H8.10875C7.7166 1.97554 7.16905 1.58796 6.54397 1.39247C5.91889 1.19697 5.24809 1.20351 4.62694 1.41116C4.00579 1.61881 3.46591 2.017 3.08407 2.54911C2.70222 3.08122 2.49785 3.72016 2.5 4.3751V11.3189C1.89708 11.9342 1.48925 12.7139 1.32766 13.5601C1.16606 14.4063 1.25789 15.2813 1.59162 16.0756C1.92536 16.8698 2.48614 17.5478 3.20367 18.0246C3.92119 18.5014 4.76351 18.7557 5.625 18.7557C6.48649 18.7557 7.32881 18.5014 8.04633 18.0246C8.76385 17.5478 9.32464 16.8698 9.65838 16.0756C9.99211 15.2813 10.0839 14.4063 9.92234 13.5601C9.76074 12.7139 9.35292 11.9342 8.75 11.3189V4.3751C8.75 4.16518 8.72885 3.95578 8.68687 3.7501H18.75V2.5001ZM5.625 17.5001C4.99234 17.501 4.37434 17.3096 3.85295 16.9513C3.33156 16.5929 2.9314 16.0845 2.70553 15.4936C2.47966 14.9026 2.43875 14.2569 2.58823 13.6422C2.73771 13.0274 3.0705 12.4726 3.5425 12.0514L3.75 11.8645V4.3751C3.75 3.87782 3.94754 3.40091 4.29917 3.04928C4.6508 2.69764 5.12772 2.5001 5.625 2.5001C6.12228 2.5001 6.59919 2.69764 6.95082 3.04928C7.30245 3.40091 7.5 3.87782 7.5 4.3751V11.8645L7.7075 12.0514C8.17949 12.4726 8.51229 13.0274 8.66177 13.6422C8.81124 14.2569 8.77033 14.9026 8.54447 15.4936C8.3186 16.0845 7.91844 16.5929 7.39705 16.9513C6.87566 17.3096 6.25766 17.501 5.625 17.5001Z" fill="#B4B4B4"/>
</svg>
