<svg width="32" height="32" viewBox="0 0 32 32" fill="none" xmlns="http://www.w3.org/2000/svg">
<path fill-rule="evenodd" clip-rule="evenodd" d="M10.8572 29.7142C10.8889 29.7142 10.9207 29.7139 10.9524 29.7135H19.3522C19.3668 29.7138 19.3815 29.714 19.3961 29.7141H19.4286V29.7143C19.4286 29.7143 19.4286 29.7143 19.4286 29.7143C21.3221 29.7143 22.8572 28.1793 22.8572 26.2857C22.8572 24.3921 21.3221 22.8571 19.4286 22.8571C18.5493 22.8571 17.7473 23.1881 17.1404 23.7323C17.1452 23.6317 17.1476 23.5305 17.1476 23.4287C17.1476 22.6569 17.0086 21.9177 16.7541 21.2346C17.5521 20.8112 18.4623 20.5714 19.4286 20.5714C22.5845 20.5714 25.1429 23.1298 25.1429 26.2857C25.1429 29.4416 22.5845 32 19.4286 32C19.4146 32 19.4006 32 19.3867 31.9999H10.9014V31.9998C10.8867 31.9998 10.8719 31.9999 10.8572 31.9999C6.12328 31.9999 2.28571 28.1623 2.28571 23.4284C2.28571 18.6945 6.12328 14.8569 10.8572 14.8569C14.5967 14.8569 17.7769 17.2517 18.9479 20.5912C18.1589 20.657 17.4155 20.883 16.7502 21.2366C15.8606 18.8458 13.5578 17.1427 10.8572 17.1427C7.38564 17.1427 4.57143 19.9569 4.57143 23.4284C4.57143 26.8999 7.38564 29.7142 10.8572 29.7142Z" fill="url(#paint0_linear_189_406)"/>
<path fill-rule="evenodd" clip-rule="evenodd" d="M14.8571 0V3.42859H17.1429V0H14.8571ZM21.2713 22.018C22.9439 20.5517 24 18.3992 24 16.0001C24 11.5818 20.4183 8.00003 16 8.00003C11.5817 8.00003 8 11.5818 8 16.0001C8 16.1621 8.00482 16.3231 8.01432 16.4828C7.23175 16.7578 6.50113 17.1432 5.84116 17.6202C5.75765 17.0925 5.71429 16.5513 5.71429 16.0001C5.71429 10.3194 10.3194 5.71431 16 5.71431C21.6806 5.71431 26.2857 10.3194 26.2857 16.0001C26.2857 18.8213 25.1499 21.3772 23.3106 23.2355C22.7299 22.6975 22.0371 22.2787 21.2713 22.018ZM28.5714 14.8572H32V17.1429H28.5714V14.8572ZM29.2849 7.01028L26.3157 8.72458L27.4586 10.7041L30.4278 8.98978L29.2849 7.01028ZM21.296 4.54151L23.0103 1.57227L24.9898 2.71513L23.2755 5.68438L21.296 4.54151ZM7.01026 2.71513L8.72454 5.68438L10.704 4.54151L8.98974 1.57227L7.01026 2.71513ZM4.54143 10.7041L1.5722 8.98978L2.71505 7.01028L5.68428 8.72458L4.54143 10.7041ZM3.42857 14.8572H0V17.1429H3.42857V14.8572ZM29.285 24.9898L26.3158 23.2756L27.4586 21.2961L30.4279 23.0103L29.285 24.9898Z" fill="url(#paint1_linear_189_406)"/>
<defs>
<linearGradient id="paint0_linear_189_406" x1="13.7143" y1="14.8569" x2="13.7143" y2="32" gradientUnits="userSpaceOnUse">
<stop stop-color="#B2D4F7"/>
<stop offset="1" stop-color="#D9E2F3"/>
</linearGradient>
<linearGradient id="paint1_linear_189_406" x1="16" y1="0" x2="16" y2="24.9898" gradientUnits="userSpaceOnUse">
<stop stop-color="#EFC977"/>
<stop offset="1" stop-color="#E07256"/>
</linearGradient>
</defs>
</svg>
