<svg width="15" height="15" viewBox="0 0 15 15" fill="none" xmlns="http://www.w3.org/2000/svg">
<path d="M13.6224 12.6276L10.8398 9.84385C11.6741 8.75663 12.0637 7.39275 11.9294 6.0289C11.7951 4.66504 11.147 3.40333 10.1167 2.49971C9.08634 1.59608 7.75086 1.11822 6.38114 1.16305C5.01142 1.20788 3.71003 1.77204 2.74097 2.7411C1.77192 3.71015 1.20775 5.01154 1.16293 6.38126C1.1181 7.75098 1.59596 9.08646 2.49958 10.1168C3.4032 11.1472 4.66492 11.7952 6.02877 11.9295C7.39263 12.0638 8.75651 11.6743 9.84373 10.8399L12.6287 13.6255C12.6941 13.6909 12.7717 13.7428 12.8572 13.7782C12.9427 13.8136 13.0342 13.8318 13.1267 13.8318C13.2192 13.8318 13.3108 13.8136 13.3963 13.7782C13.4817 13.7428 13.5594 13.6909 13.6248 13.6255C13.6902 13.5601 13.7421 13.4824 13.7775 13.397C13.8129 13.3115 13.8311 13.2199 13.8311 13.1274C13.8311 13.0349 13.8129 12.9434 13.7775 12.8579C13.7421 12.7724 13.6902 12.6948 13.6248 12.6294L13.6224 12.6276ZM2.57811 6.5626C2.57811 5.77457 2.81179 5.00423 3.24959 4.349C3.6874 3.69378 4.30968 3.18309 5.03773 2.88152C5.76578 2.57995 6.5669 2.50105 7.33979 2.65479C8.11269 2.80852 8.82264 3.188 9.37986 3.74522C9.93709 4.30245 10.3166 5.0124 10.4703 5.78529C10.624 6.55818 10.5451 7.35931 10.2436 8.08736C9.942 8.81541 9.43131 9.43768 8.77608 9.87549C8.12085 10.3133 7.35052 10.547 6.56248 10.547C5.50609 10.5459 4.49328 10.1258 3.7463 9.37878C2.99932 8.6318 2.57919 7.61899 2.57811 6.5626Z" fill="#B4B4B4"/>
</svg>
