<svg width="28" height="28" viewBox="0 0 28 28" fill="none" xmlns="http://www.w3.org/2000/svg">
<path fill-rule="evenodd" clip-rule="evenodd" d="M27.2155 6.76695C27.4289 5.96995 27.4516 5.16679 27.3116 4.40596C26.7705 5.64418 25.398 6.34514 24.0449 6.00215C23.6022 5.88994 23.2108 5.67848 22.8886 5.39758C22.7482 5.2941 22.6205 5.17372 22.5084 5.03882C22.3115 4.8019 22.1675 4.52564 22.0859 4.22853L22.0776 4.19737C21.9028 3.69531 21.8681 3.1382 22.0083 2.58438C22.292 1.46358 23.212 0.672159 24.2849 0.498085C24.0098 0.371022 23.7203 0.265596 23.4177 0.184468C20.7235 -0.537925 17.9588 0.923383 17 3.48417C17.6264 4.03556 18.1832 4.66411 18.6558 5.35498C18.6578 5.07346 18.6953 4.78754 18.7715 4.50283C18.9851 3.70519 19.4667 3.05152 20.0932 2.61257C20.061 2.73859 20.0347 2.86627 20.0142 2.99523C19.9204 3.58746 19.954 4.19291 20.1127 4.77111C20.2715 5.34931 20.5518 5.88692 20.9349 6.348C21.318 6.80908 21.7951 7.18299 22.3342 7.44473C22.8733 7.70648 23.462 7.85003 24.0611 7.86577C24.1421 7.8679 24.223 7.86769 24.3038 7.86515C23.4826 8.61611 22.308 8.9446 21.1548 8.6354C20.7035 8.5144 20.2982 8.30716 19.9518 8.03611C20.0495 8.35169 20.132 8.67395 20.1984 9.00204C20.2646 8.99987 20.3311 8.99878 20.3978 8.99878C21.8162 8.99878 23.1196 9.49129 24.1466 10.3147C25.6052 9.68689 26.7726 8.42086 27.2155 6.76695Z" fill="url(#paint0_linear_219_1130)"/>
<path fill-rule="evenodd" clip-rule="evenodd" d="M7 21.3473C2.91752 19.8163 0 15.7615 0 11C0 4.92487 4.74949 0 10.6083 0C15.469 0 19.5661 3.38976 20.821 8.01387C20.9626 8.00467 21.1054 8.00001 21.2493 8.00001C24.9776 8.00001 28 11.134 28 15C28 18.866 24.9776 22 21.2493 22C21.1658 22 21.0827 21.9984 21 21.9953V20H21.3029V19.9996C23.8359 19.9695 26 17.8105 26 15C26 12.1696 23.8053 10 21.2493 10C20.5272 10 19.8339 10.1732 19.2108 10.4855C19.1791 9.90367 19.0937 9.33674 18.9599 8.78992L18.9569 8.79115C18.0091 4.85004 14.5839 2 10.6083 2C5.92179 2 2 5.96046 2 11C2 14.6616 4.0703 17.7535 7 19.1706V21.3473Z" fill="url(#paint1_linear_219_1130)"/>
<path fill-rule="evenodd" clip-rule="evenodd" d="M15.168 14.4453L16.8321 15.5547L13.8685 20H18.9557L13.4773 27.5855L11.856 26.4145L15.0442 22H10.1315L15.168 14.4453Z" fill="url(#paint2_linear_219_1130)"/>
<path fill-rule="evenodd" clip-rule="evenodd" d="M18.3609 24.9244C18.1533 25.4108 18.0009 25.9308 18.001 26.4091C18.0013 27.2877 18.6731 28 19.5015 28C20.33 28 21.0013 27.2877 21.001 26.4091C21.0009 25.9619 20.8327 25.4321 20.609 24.9252C20.1643 23.9175 19.5 23 19.5 23C19.5 23 18.8044 23.8856 18.3609 24.9244Z" fill="url(#paint3_linear_219_1130)"/>
<path fill-rule="evenodd" clip-rule="evenodd" d="M7.36092 24.9244C7.15328 25.4108 7.0009 25.9308 7.00105 26.4091C7.00132 27.2877 7.67311 28 8.50153 28C9.32996 28 10.0013 27.2877 10.001 26.4091C10.0009 25.9619 9.83274 25.4321 9.60902 24.9252C9.16427 23.9175 8.5 23 8.5 23C8.5 23 7.80441 23.8856 7.36092 24.9244Z" fill="url(#paint4_linear_219_1130)"/>
<defs>
<linearGradient id="paint0_linear_219_1130" x1="22.1999" y1="0" x2="22.1999" y2="10.3147" gradientUnits="userSpaceOnUse">
<stop stop-color="#F5BD52"/>
<stop offset="1" stop-color="#F5DA79"/>
</linearGradient>
<linearGradient id="paint1_linear_219_1130" x1="14" y1="0" x2="14" y2="22" gradientUnits="userSpaceOnUse">
<stop stop-color="#95B6F6"/>
<stop offset="1" stop-color="#5193DE"/>
</linearGradient>
<linearGradient id="paint2_linear_219_1130" x1="14.5436" y1="14.4453" x2="14.5436" y2="27.5855" gradientUnits="userSpaceOnUse">
<stop stop-color="#F5BD52"/>
<stop offset="1" stop-color="#F5DA79"/>
</linearGradient>
<linearGradient id="paint3_linear_219_1130" x1="19.5" y1="23" x2="19.5" y2="28" gradientUnits="userSpaceOnUse">
<stop stop-color="#95B6F6"/>
<stop offset="1" stop-color="#5193DE"/>
</linearGradient>
<linearGradient id="paint4_linear_219_1130" x1="8.5" y1="23" x2="8.5" y2="28" gradientUnits="userSpaceOnUse">
<stop stop-color="#95B6F6"/>
<stop offset="1" stop-color="#5193DE"/>
</linearGradient>
</defs>
</svg>
