<svg width="20" height="20" viewBox="0 0 20 20" fill="none" xmlns="http://www.w3.org/2000/svg">
<path fill-rule="evenodd" clip-rule="evenodd" d="M0 10.1236C0 9.29494 1.11759e-08 8.55815 0.013 7.90137H19.987C20 8.55815 20 9.29494 20 10.1236V12.0989C20 15.8233 20 17.686 18.828 18.8425C17.657 20.0001 15.771 20.0001 12 20.0001H8C4.229 20.0001 2.343 20.0001 1.172 18.8425C-1.19209e-07 17.686 0 15.8233 0 12.0989V10.1236ZM15 12.0989C15.2652 12.0989 15.5196 11.9948 15.7071 11.8096C15.8946 11.6244 16 11.3732 16 11.1112C16 10.8493 15.8946 10.5981 15.7071 10.4129C15.5196 10.2276 15.2652 10.1236 15 10.1236C14.7348 10.1236 14.4804 10.2276 14.2929 10.4129C14.1054 10.5981 14 10.8493 14 11.1112C14 11.3732 14.1054 11.6244 14.2929 11.8096C14.4804 11.9948 14.7348 12.0989 15 12.0989ZM15 16.0495C15.2652 16.0495 15.5196 15.9454 15.7071 15.7602C15.8946 15.575 16 15.3238 16 15.0618C16 14.7999 15.8946 14.5487 15.7071 14.3635C15.5196 14.1782 15.2652 14.0742 15 14.0742C14.7348 14.0742 14.4804 14.1782 14.2929 14.3635C14.1054 14.5487 14 14.7999 14 15.0618C14 15.3238 14.1054 15.575 14.2929 15.7602C14.4804 15.9454 14.7348 16.0495 15 16.0495ZM11 11.1112C11 11.3732 10.8946 11.6244 10.7071 11.8096C10.5196 11.9948 10.2652 12.0989 10 12.0989C9.73478 12.0989 9.48043 11.9948 9.29289 11.8096C9.10536 11.6244 9 11.3732 9 11.1112C9 10.8493 9.10536 10.5981 9.29289 10.4129C9.48043 10.2276 9.73478 10.1236 10 10.1236C10.2652 10.1236 10.5196 10.2276 10.7071 10.4129C10.8946 10.5981 11 10.8493 11 11.1112ZM11 15.0618C11 15.3238 10.8946 15.575 10.7071 15.7602C10.5196 15.9454 10.2652 16.0495 10 16.0495C9.73478 16.0495 9.48043 15.9454 9.29289 15.7602C9.10536 15.575 9 15.3238 9 15.0618C9 14.7999 9.10536 14.5487 9.29289 14.3635C9.48043 14.1782 9.73478 14.0742 10 14.0742C10.2652 14.0742 10.5196 14.1782 10.7071 14.3635C10.8946 14.5487 11 14.7999 11 15.0618ZM5 12.0989C5.26522 12.0989 5.51957 11.9948 5.70711 11.8096C5.89464 11.6244 6 11.3732 6 11.1112C6 10.8493 5.89464 10.5981 5.70711 10.4129C5.51957 10.2276 5.26522 10.1236 5 10.1236C4.73478 10.1236 4.48043 10.2276 4.29289 10.4129C4.10536 10.5981 4 10.8493 4 11.1112C4 11.3732 4.10536 11.6244 4.29289 11.8096C4.48043 11.9948 4.73478 12.0989 5 12.0989ZM5 16.0495C5.26522 16.0495 5.51957 15.9454 5.70711 15.7602C5.89464 15.575 6 15.3238 6 15.0618C6 14.7999 5.89464 14.5487 5.70711 14.3635C5.51957 14.1782 5.26522 14.0742 5 14.0742C4.73478 14.0742 4.48043 14.1782 4.29289 14.3635C4.10536 14.5487 4 14.7999 4 15.0618C4 15.3238 4.10536 15.575 4.29289 15.7602C4.48043 15.9454 4.73478 16.0495 5 16.0495Z" fill="#B4B4B4"/>
<path d="M5.75 0.740737C5.75 0.544281 5.67098 0.355872 5.53033 0.216957C5.38968 0.0780418 5.19891 0 5 0C4.80109 0 4.61032 0.0780418 4.46967 0.216957C4.32902 0.355872 4.25 0.544281 4.25 0.740737V2.30122C2.81 2.4148 1.866 2.69332 1.172 3.37974C0.477 4.06517 0.195 4.99849 0.0790005 6.41972H19.921C19.805 4.99751 19.523 4.06517 18.828 3.37974C18.134 2.69332 17.189 2.4148 15.75 2.30024V0.740737C15.75 0.544281 15.671 0.355872 15.5303 0.216957C15.3897 0.0780418 15.1989 0 15 0C14.8011 0 14.6103 0.0780418 14.4697 0.216957C14.329 0.355872 14.25 0.544281 14.25 0.740737V2.23505C13.585 2.22221 12.839 2.22221 12 2.22221H8C7.161 2.22221 6.415 2.22221 5.75 2.23505V0.740737Z" fill="#B4B4B4"/>
</svg>
