<svg width="20" height="20" viewBox="0 0 20 20" fill="none" xmlns="http://www.w3.org/2000/svg">
<path d="M18.9993 7.84813C18.9995 8.45172 18.4844 8.99693 17.7787 8.99693C17.073 8.99693 16.5576 8.45172 16.5574 7.84813C16.5572 7.13448 16.9751 6.18953 17.5175 5.31189C17.5973 5.18286 17.6772 5.05926 17.7553 4.94254C17.8452 5.08136 17.9379 5.22914 18.0305 5.38328C18.2922 5.81937 18.5423 6.28975 18.7245 6.7411C18.9118 7.20532 18.9992 7.58137 18.9993 7.84813Z" fill="#B4B4B4" stroke="#B4B4B4" stroke-width="2"/>
<path d="M10.1104 4.60472C10.1106 5.20831 9.59552 5.75352 8.88983 5.75352C8.18414 5.75352 7.66869 5.20831 7.66847 4.60472C7.66821 3.89107 8.08616 2.94612 8.62854 2.06848C8.70829 1.93945 8.78818 1.81586 8.86626 1.69913C8.95621 1.83795 9.04893 1.98573 9.14146 2.13987C9.40324 2.57597 9.65332 3.04634 9.83551 3.49769C10.0229 3.96191 10.1103 4.33796 10.1104 4.60472Z" fill="#B4B4B4" stroke="#B4B4B4" stroke-width="2"/>
<path d="M15.6689 15.7005C15.6695 17.4919 14.1595 19.0001 12.2261 19.0001C10.2927 19.0001 8.78163 17.4919 8.78102 15.7005C8.78044 13.9728 9.75378 11.8756 10.8516 10.0993C11.3311 9.32341 11.8119 8.64393 12.1964 8.13066C12.5897 8.68495 13.0893 9.42352 13.5876 10.2536C14.1274 11.1529 14.6555 12.1429 15.0462 13.1111C15.4422 14.0921 15.6687 14.982 15.6689 15.7005Z" fill="#B4B4B4" stroke="#B4B4B4" stroke-width="2"/>
<path d="M4.33511 12.557C4.33536 13.3988 3.62076 14.1371 2.66887 14.1371C1.71698 14.1371 1.00193 13.3988 1.00167 12.557C1.0014 11.64 1.53078 10.464 2.1846 9.40617C2.34057 9.15382 2.49693 8.91869 2.64376 8.70793C2.80239 8.94487 2.97307 9.21058 3.14329 9.49419C3.46079 10.0232 3.7666 10.5977 3.99058 11.1527C4.21975 11.7206 4.335 12.1997 4.33511 12.557Z" fill="#B4B4B4" stroke="#B4B4B4" stroke-width="2"/>
</svg>
