<svg width="20" height="20" viewBox="0 0 20 20" fill="none" xmlns="http://www.w3.org/2000/svg">
<path fill-rule="evenodd" clip-rule="evenodd" d="M3.54167 15.8334C3.54167 15.6677 3.60752 15.5087 3.72473 15.3915C3.84194 15.2743 4.00091 15.2084 4.16667 15.2084H15.8333C15.9991 15.2084 16.1581 15.2743 16.2753 15.3915C16.3925 15.5087 16.4583 15.6677 16.4583 15.8334C16.4583 15.9992 16.3925 16.1581 16.2753 16.2754C16.1581 16.3926 15.9991 16.4584 15.8333 16.4584H4.16667C4.00091 16.4584 3.84194 16.3926 3.72473 16.2754C3.60752 16.1581 3.54167 15.9992 3.54167 15.8334ZM6.04167 18.3334C6.04167 18.1677 6.10752 18.0087 6.22473 17.8915C6.34194 17.7743 6.50091 17.7084 6.66667 17.7084H13.3333C13.4991 17.7084 13.6581 17.7743 13.7753 17.8915C13.8925 18.0087 13.9583 18.1677 13.9583 18.3334C13.9583 18.4992 13.8925 18.6581 13.7753 18.7754C13.6581 18.8926 13.4991 18.9584 13.3333 18.9584H6.66667C6.50091 18.9584 6.34194 18.8926 6.22473 18.7754C6.10752 18.6581 6.04167 18.4992 6.04167 18.3334ZM10 1.04175C10.1658 1.04175 10.3247 1.1076 10.4419 1.22481C10.5592 1.34202 10.625 1.50099 10.625 1.66675V2.50008C10.625 2.66584 10.5592 2.82481 10.4419 2.94202C10.3247 3.05923 10.1658 3.12508 10 3.12508C9.83424 3.12508 9.67527 3.05923 9.55806 2.94202C9.44085 2.82481 9.375 2.66584 9.375 2.50008V1.66675C9.375 1.50099 9.44085 1.34202 9.55806 1.22481C9.67527 1.1076 9.83424 1.04175 10 1.04175ZM3.66583 3.66591C3.78302 3.54887 3.94188 3.48313 4.1075 3.48313C4.27313 3.48313 4.43198 3.54887 4.54917 3.66591L4.87667 3.99258C4.99057 4.1104 5.05365 4.26825 5.0523 4.43213C5.05095 4.596 4.9853 4.75279 4.86947 4.86872C4.75364 4.98466 4.59692 5.05046 4.43304 5.05196C4.26917 5.05347 4.11126 4.99054 3.99333 4.87675L3.66583 4.54925C3.54879 4.43206 3.48305 4.27321 3.48305 4.10758C3.48305 3.94196 3.54879 3.7831 3.66583 3.66591ZM16.3342 3.66591C16.4512 3.7831 16.517 3.94196 16.517 4.10758C16.517 4.27321 16.4512 4.43206 16.3342 4.54925L16.0067 4.87675C15.8882 4.98715 15.7315 5.04725 15.5696 5.04439C15.4076 5.04154 15.2532 4.97594 15.1386 4.86143C15.0241 4.74692 14.9585 4.59243 14.9557 4.43052C14.9528 4.2686 15.0129 4.11189 15.1233 3.99341L15.4508 3.66591C15.568 3.54887 15.7269 3.48313 15.8925 3.48313C16.0581 3.48313 16.217 3.54887 16.3342 3.66591ZM1.04167 10.0001C1.04167 9.83432 1.10752 9.67535 1.22473 9.55814C1.34194 9.44093 1.50091 9.37508 1.66667 9.37508H2.5C2.66576 9.37508 2.82473 9.44093 2.94194 9.55814C3.05915 9.67535 3.125 9.83432 3.125 10.0001C3.125 10.1658 3.05915 10.3248 2.94194 10.442C2.82473 10.5592 2.66576 10.6251 2.5 10.6251H1.66667C1.50091 10.6251 1.34194 10.5592 1.22473 10.442C1.10752 10.3248 1.04167 10.1658 1.04167 10.0001ZM16.875 10.0001C16.875 9.83432 16.9408 9.67535 17.0581 9.55814C17.1753 9.44093 17.3342 9.37508 17.5 9.37508H18.3333C18.4991 9.37508 18.6581 9.44093 18.7753 9.55814C18.8925 9.67535 18.9583 9.83432 18.9583 10.0001C18.9583 10.1658 18.8925 10.3248 18.7753 10.442C18.6581 10.5592 18.4991 10.6251 18.3333 10.6251H17.5C17.3342 10.6251 17.1753 10.5592 17.0581 10.442C16.9408 10.3248 16.875 10.1658 16.875 10.0001Z" fill="#B4B4B4"/>
<path d="M4.375 10.0001C4.375 10.9817 4.62667 11.9051 5.06917 12.7084H1.66667C1.50091 12.7084 1.34194 12.7743 1.22473 12.8915C1.10752 13.0087 1.04167 13.1676 1.04167 13.3334C1.04167 13.4992 1.10752 13.6581 1.22473 13.7753C1.34194 13.8926 1.50091 13.9584 1.66667 13.9584H9.375V9.84173L8.775 10.4417C8.71778 10.5031 8.64878 10.5524 8.57212 10.5866C8.49545 10.6207 8.41269 10.6391 8.32877 10.6406C8.24485 10.642 8.16149 10.6266 8.08367 10.5952C8.00585 10.5637 7.93515 10.5169 7.8758 10.4576C7.81645 10.3983 7.76967 10.3276 7.73823 10.2497C7.7068 10.1719 7.69136 10.0886 7.69284 10.0046C7.69432 9.92071 7.71269 9.83795 7.74685 9.76129C7.78101 9.68462 7.83026 9.61562 7.89167 9.5584L9.55833 7.89173C9.67552 7.77469 9.83438 7.70895 10 7.70895C10.1656 7.70895 10.3245 7.77469 10.4417 7.89173L12.1083 9.5584C12.1697 9.61562 12.219 9.68462 12.2532 9.76129C12.2873 9.83795 12.3057 9.92071 12.3072 10.0046C12.3086 10.0886 12.2932 10.1719 12.2618 10.2497C12.2303 10.3276 12.1835 10.3983 12.1242 10.4576C12.0648 10.5169 11.9942 10.5637 11.9163 10.5952C11.8385 10.6266 11.7552 10.642 11.6712 10.6406C11.5873 10.6391 11.5046 10.6207 11.4279 10.5866C11.3512 10.5524 11.2822 10.5031 11.225 10.4417L10.625 9.84173V13.9584H18.3333C18.4991 13.9584 18.6581 13.8926 18.7753 13.7753C18.8925 13.6581 18.9583 13.4992 18.9583 13.3334C18.9583 13.1676 18.8925 13.0087 18.7753 12.8915C18.6581 12.7743 18.4991 12.7084 18.3333 12.7084H14.9308C15.3436 11.9566 15.5789 11.1204 15.6189 10.2637C15.6589 9.40699 15.5024 8.55249 15.1615 7.76553C14.8206 6.97856 14.3043 6.27997 13.652 5.72317C12.9997 5.16636 12.2287 4.76608 11.3979 4.55294C10.5672 4.3398 9.69875 4.31944 8.85895 4.49341C8.01915 4.66739 7.23025 5.03109 6.55257 5.55671C5.87488 6.08234 5.32637 6.75596 4.94895 7.52608C4.57153 8.29621 4.37521 9.14244 4.375 10.0001Z" fill="#B4B4B4"/>
</svg>
