<svg width="22" height="22" viewBox="0 0 22 22" fill="none" xmlns="http://www.w3.org/2000/svg">
<path d="M16.5511 11.5882C16.5511 10.0281 15.9658 8.53194 14.9239 7.42878C13.8821 6.32563 12.469 5.70588 10.9956 5.70588C9.52213 5.70588 8.10905 6.32563 7.06718 7.42878C6.02532 8.53194 5.44 10.0281 5.44 11.5882M10.9956 1H11.0056M18.07 4.09765L18.0767 4.10471M3.92556 4.10588L3.93222 4.09765M21 11.5835V11.5941M1 11.5835V11.5941M4.88444 15.1176V18.6471C4.88444 19.7565 4.88444 20.3106 5.21 20.6553C5.53556 21 6.05889 21 7.10667 21C8.15444 21 8.67778 21 9.00333 20.6553C9.32889 20.3106 9.32889 19.7565 9.32889 18.6471V15.1176M12.6622 15.1176L14.8844 21L17.1067 15.1176" stroke="#B4B4B4" stroke-width="1.5" stroke-linecap="round" stroke-linejoin="round"/>
</svg>
