<svg width="28" height="28" viewBox="0 0 28 28" fill="none" xmlns="http://www.w3.org/2000/svg">
<path fill-rule="evenodd" clip-rule="evenodd" d="M25.9785 11.2109C27.2237 10.0268 28 8.35404 28 6.5C28 2.91015 25.0898 0 21.5 0C19.2543 0 17.2746 1.13882 16.1069 2.87046C16.6177 3.3536 17.0801 3.8875 17.4858 4.46406C18.2289 3.00184 19.7474 2 21.5 2C23.9853 2 26 4.01472 26 6.5C26 7.60602 25.601 8.61885 24.939 9.40238C25.3766 9.9406 25.7298 10.5502 25.9785 11.2109Z" fill="url(#paint0_linear_219_1180)"/>
<path fill-rule="evenodd" clip-rule="evenodd" d="M0 11C0 15.3628 2.44938 19.1323 6 20.9107V18.6003C3.61019 17.0152 2 14.2291 2 11C2 5.96046 5.92179 2 10.6083 2C14.5839 2 18.0091 4.85004 18.9569 8.79115L18.9599 8.78992C19.0937 9.33674 19.1791 9.90367 19.2108 10.4855C19.8339 10.1732 20.5272 10 21.2493 10C23.8053 10 26 12.1696 26 15C26 16.7105 25.1984 18.1797 24 19.0745V21.3944C26.3573 20.3025 28 17.8501 28 15C28 11.134 24.9776 8.00001 21.2493 8.00001C21.1054 8.00001 20.9626 8.00467 20.821 8.01387C19.5661 3.38976 15.469 0 10.6083 0C4.74949 0 0 4.92487 0 11ZM16.7189 18.2026C16.9286 18.3237 17.2571 18.2708 17.4251 17.9798C17.5171 17.8204 17.6353 17.4894 17.7209 16.9505C17.7551 16.7356 17.7808 16.509 17.7994 16.2764C17.2154 16.6896 16.7729 17.1084 16.5587 17.4794C16.3908 17.7704 16.5092 18.0815 16.7189 18.2026ZM17.7944 13.9217C18.8367 13.3377 19.7192 13.0041 19.7192 13.0041C19.7192 13.0041 19.8346 13.9432 19.8392 15.1264C19.8441 16.4225 19.7159 18.0116 19.157 18.98C18.4541 20.1979 16.9149 20.6254 15.7192 19.9348C14.5235 19.2442 14.1239 17.697 14.8268 16.4792C15.4402 15.4164 16.7046 14.5322 17.7944 13.9217ZM10.1161 19.2204C10.3258 19.3415 10.6543 19.2886 10.8222 18.9976C10.9142 18.8382 11.0324 18.5072 11.1181 17.9683C11.1522 17.7535 11.178 17.5269 11.1966 17.2942C10.6125 17.7074 10.17 18.1262 9.95589 18.4972C9.78793 18.7883 9.9064 19.0993 10.1161 19.2204ZM11.1915 14.9395C12.2339 14.3555 13.1164 14.0219 13.1164 14.0219C13.1164 14.0219 13.2318 14.961 13.2363 16.1442C13.2412 17.4403 13.1131 19.0294 12.5541 19.9979C11.8512 21.2157 10.3121 21.6432 9.11636 20.9526C7.92063 20.262 7.5211 18.7149 8.22399 17.497C8.83736 16.4342 10.1018 15.55 11.1915 14.9395ZM19.6793 24.1128C19.5113 24.4039 19.1828 24.4567 18.9731 24.3356C18.7635 24.2145 18.645 23.9035 18.8129 23.6125C19.0271 23.2415 19.4696 22.8227 20.0537 22.4094C20.035 22.6421 20.0093 22.8687 19.9751 23.0835C19.8895 23.6224 19.7713 23.9535 19.6793 24.1128ZM21.9734 19.1372C21.9734 19.1372 21.0909 19.4708 20.0486 20.0547C18.9589 20.6653 17.6944 21.5495 17.0811 22.6122C16.3782 23.8301 16.7777 25.3772 17.9734 26.0678C19.1691 26.7584 20.7083 26.331 21.4112 25.1131C21.9701 24.1447 22.0983 22.5556 22.0934 21.2594C22.0889 20.0762 21.9734 19.1372 21.9734 19.1372ZM12.2548 25.9374C12.4645 26.0585 12.793 26.0057 12.961 25.7146C13.0529 25.5553 13.1712 25.2243 13.2568 24.6854C13.291 24.4705 13.3167 24.2439 13.3353 24.0112C12.7513 24.4245 12.3088 24.8433 12.0946 25.2143C11.9267 25.5053 12.0451 25.8163 12.2548 25.9374ZM13.3303 21.6565C14.3726 21.0726 15.2551 20.739 15.2551 20.739C15.2551 20.739 15.3705 21.678 15.375 22.8612C15.38 24.1574 15.2518 25.7465 14.6929 26.7149C13.99 27.9328 12.4508 28.3602 11.2551 27.6696C10.0594 26.979 9.65983 25.4319 10.3627 24.214C10.9761 23.1513 12.2405 22.2671 13.3303 21.6565Z" fill="url(#paint1_linear_219_1180)"/>
<defs>
<linearGradient id="paint0_linear_219_1180" x1="22.0535" y1="0" x2="22.0535" y2="11.2109" gradientUnits="userSpaceOnUse">
<stop stop-color="#EFC977"/>
<stop offset="1" stop-color="#E07256"/>
</linearGradient>
<linearGradient id="paint1_linear_219_1180" x1="14" y1="0" x2="14" y2="27.9999" gradientUnits="userSpaceOnUse">
<stop stop-color="#95B6F6"/>
<stop offset="1" stop-color="#5193DE"/>
</linearGradient>
</defs>
</svg>
