<svg width="24" height="24" viewBox="0 0 24 24" fill="none" xmlns="http://www.w3.org/2000/svg">
<path fill-rule="evenodd" clip-rule="evenodd" d="M9.99678 12.0012L4.88435 14.992L0.831882 13.1314L0 14.9618L2.76557 16.2315L1.24436 17.1214L2.23444 18.859L3.75541 17.9693L3.4579 21.0305L5.43822 21.2156L5.87418 16.7298L10.989 13.7376V19.7528L7.36983 22.3801L8.54437 23.9988L10.989 22.2241V24H12.9886V22.224L15.4334 23.9988L16.6079 22.3801L12.9886 19.7527V13.7514L18.1149 16.7503L18.5509 21.2367L20.5312 21.0515L20.2336 17.9898L21.7549 18.8798L22.745 17.1422L21.224 16.2523L23.9891 14.9828L23.1572 13.1525L19.1052 15.0128L13.9571 12.0012L19.0893 8.99883L23.1681 10.8715L24 9.04117L21.2081 7.75934L22.747 6.85905L21.7569 5.12142L20.2474 6.0045L20.5421 2.97248L18.5618 2.78729L18.1287 7.244L12.9886 10.251V4.26755L16.6312 1.62327L15.4566 0.00465947L12.9886 1.79629V0H10.989V1.76246L8.56761 0.00465947L7.39307 1.62327L10.989 4.23371V10.2648L5.88989 7.28181L5.45107 2.7665L3.47075 2.95168L3.77112 6.04231L2.23244 5.14217L1.24235 6.8798L2.75182 7.76285L0.0128491 9.02038L0.844731 10.8507L4.8706 9.00235L9.99678 12.0012Z" fill="url(#paint0_linear_219_875)"/>
<defs>
<linearGradient id="paint0_linear_219_875" x1="12" y1="0" x2="12" y2="24" gradientUnits="userSpaceOnUse">
<stop stop-color="#B2D4F7"/>
<stop offset="1" stop-color="#D9E2F3"/>
</linearGradient>
</defs>
</svg>
