<svg width="24" height="24" viewBox="0 0 24 24" fill="none" xmlns="http://www.w3.org/2000/svg">
<path fill-rule="evenodd" clip-rule="evenodd" d="M10.0001 5.04549L10.0001 5.03806L4.33939 5.03797L9.76934 2.55956L9.76876 2.55752C9.87275 2.5244 9.98036 2.51262 10.0875 2.52271C10.1016 2.52404 10.1157 2.52575 10.1298 2.52785L10.13 2.52788C10.2771 2.54976 10.4184 2.61264 10.5439 2.71197L10.5439 2.71199C10.6694 2.81133 10.7759 2.94464 10.8556 3.1023L10.8557 3.10256C10.9354 3.26023 10.9864 3.43829 11.0049 3.62388L11.005 3.62423C11.0235 3.8099 11.0092 3.99846 10.963 4.17627L10.963 4.17641C10.9168 4.35427 10.8398 4.51692 10.7378 4.65261L10.7377 4.65273C10.6356 4.78836 10.511 4.89365 10.3728 4.96099L10.3726 4.96112C10.3596 4.96745 10.3465 4.97342 10.3333 4.97905C10.226 5.0249 10.1133 5.04735 10.0001 5.04549ZM0 4.33208V7.56442L9.97957 7.56457C10.3586 7.56994 10.7355 7.48431 11.0903 7.31146L11.0905 7.31133C11.3605 7.17972 11.6132 6.99971 11.8412 6.77765C11.9625 6.6594 12.0768 6.52922 12.183 6.38807L12.1831 6.38795C12.4886 5.98172 12.7189 5.49478 12.8573 4.96234L12.8573 4.96219C12.9956 4.42976 13.0386 3.86513 12.9831 3.30915L12.9831 3.30879C12.9275 2.75279 12.7749 2.21933 12.5362 1.74698L12.5361 1.74672C12.2974 1.27432 11.9785 0.874864 11.6026 0.577249L11.6026 0.577234C11.472 0.47381 11.3356 0.383583 11.1947 0.307125C10.9302 0.163565 10.65 0.0685478 10.3625 0.0258571L10.3623 0.0258254C9.93403 -0.0377381 9.50007 0.0163887 9.09012 0.184278L9.08981 0.183202L9.05912 0.197207L9.05551 0.198746L9.05509 0.198923L9.05512 0.199037L0 4.33208ZM0 15.1554V17.7505L13.2058 23.6849L13.2057 23.6854C13.6836 23.9263 14.1977 24.031 14.7113 23.9921C14.9088 23.9771 15.1043 23.9411 15.2959 23.8847C15.6026 23.7944 15.8991 23.6519 16.1771 23.4603C16.6288 23.149 17.0206 22.7156 17.3246 22.1911C17.6286 21.6665 17.8372 21.0637 17.9357 20.4256C18.0342 19.7875 18.0201 19.1298 17.8943 18.4994C17.7686 17.869 17.5344 17.2813 17.2083 16.7784C17.0076 16.4688 16.7752 16.196 16.5178 15.9667C16.357 15.8235 16.1866 15.6973 16.008 15.5897C15.5443 15.3102 15.0376 15.1633 14.5239 15.1592V15.1554L0 15.1554ZM14.5103 17.6819L5.8151 17.6819L13.9842 21.3529L13.9835 21.3555C14.1776 21.446 14.3847 21.4848 14.5916 21.4691C14.8115 21.4524 15.0258 21.3747 15.2193 21.2414C15.4127 21.1081 15.5805 20.9225 15.7106 20.6979C15.8408 20.4732 15.9302 20.2151 15.9723 19.9418C16.0145 19.6686 16.0085 19.387 15.9546 19.117C15.9008 18.847 15.8005 18.5954 15.6608 18.38C15.5212 18.1647 15.3457 17.9909 15.1468 17.871C14.9483 17.7513 14.7312 17.6884 14.5112 17.6866L14.5103 17.6866L14.5103 17.6862L14.5103 17.6819ZM19.018 5.36602L19.0172 5.36665L18.0336 3.16692L18.0325 3.16438L18.0345 3.16298C18.567 2.78336 19.1613 2.56303 19.7718 2.51894C19.8603 2.51255 19.9489 2.50989 20.0373 2.51093C20.559 2.51707 21.0757 2.65217 21.5579 2.9098C22.1218 3.21108 22.6234 3.67187 23.0241 4.25668C23.4248 4.8415 23.7139 5.53473 23.8692 6.28298C24.0245 7.03122 24.0417 7.81452 23.9197 8.57253C23.7976 9.33053 23.5395 10.043 23.1651 10.6551C22.8451 11.1785 22.4474 11.6165 21.9952 11.9453C21.9185 12.0011 21.8403 12.0537 21.7606 12.103C21.2108 12.4435 20.6066 12.62 19.9944 12.6189V12.6185H0V10.0922H19.9972L19.9972 10.0895C20.303 10.09 20.6049 10.0019 20.8795 9.83181C21.1541 9.66173 21.3941 9.41429 21.5811 9.10852C21.7681 8.80276 21.897 8.44685 21.958 8.0682C22.019 7.68955 22.0104 7.29827 21.9328 6.92449C21.8552 6.55072 21.7108 6.20442 21.5106 5.91229C21.3105 5.62015 21.0599 5.38997 20.7782 5.23947C20.4966 5.08897 20.1913 5.02218 19.886 5.04423C19.581 5.06625 19.2841 5.17634 19.018 5.36602Z" fill="url(#paint0_linear_219_1239)"/>
<defs>
<linearGradient id="paint0_linear_219_1239" x1="12" y1="0" x2="12" y2="24" gradientUnits="userSpaceOnUse">
<stop stop-color="#CED3EA"/>
<stop offset="1" stop-color="#7E83A9"/>
</linearGradient>
</defs>
</svg>
